<?xml version="1.0" standalone="no"?>
<!DOCTYPE svg PUBLIC "-//W3C//DTD SVG 20010904//EN"
 "http://www.w3.org/TR/2001/REC-SVG-20010904/DTD/svg10.dtd">
<svg version="1.0" xmlns="http://www.w3.org/2000/svg"
 width="256.000000pt" height="256.000000pt" viewBox="0 0 256.000000 256.000000"
 preserveAspectRatio="xMidYMid meet">
<metadata>
Created by potrace 1.11, written by Peter Selinger 2001-2013
</metadata>
<g transform="translate(0.000000,256.000000) scale(0.100000,-0.100000)"
fill="#000000" stroke="none">
<path d="M1365 2543 c-60 -12 -177 -59 -209 -84 -184 -138 -279 -337 -272
-569 5 -168 35 -248 149 -394 63 -82 80 -123 81 -199 1 -66 0 -69 -36 -102
-56 -52 -129 -70 -273 -69 -133 1 -194 17 -291 75 -97 59 -199 170 -251 273
l-26 51 -58 -63 c-64 -70 -128 -190 -155 -292 -25 -92 -25 -364 0 -430 3 -8 7
-26 10 -40 7 -42 37 -122 69 -185 119 -238 322 -399 590 -470 139 -37 208 -42
512 -44 261 -2 285 0 350 20 280 86 531 333 589 580 19 80 15 232 -8 310 -21
71 -72 157 -131 218 -75 78 -80 88 -80 166 0 80 15 138 47 185 19 27 35 36 93
50 178 45 471 227 491 305 14 57 -29 79 -171 88 -88 5 -181 35 -211 68 -10 11
-20 32 -22 46 -6 47 -62 179 -101 240 -120 186 -300 281 -532 281 -46 0 -115
-7 -154 -15z"/>
</g>
</svg>
